<?xml version="1.0" encoding="UTF-8" standalone="yes"?>
<svg version="1.2" baseProfile="tiny-ps" viewBox="0 0 192 192" xmlns="http://www.w3.org/2000/svg">
  <title>Amazon</title>
  <rect class="cls-1" fill="#fff" width="192" height="192"/>
  <path class="cls-2" fill="#232f3e" d="M154.54,94.36C138.4,106.27,115,112.6,94.85,112.6A108.07,108.07,0,0,1,21.94,84.79c-1.51-1.37-.16-3.23,1.66-2.18A146.64,146.64,0,0,0,96.55,102,145.08,145.08,0,0,0,152.2,90.58c2.72-1.15,5,1.8,2.34,3.78Z"/>
  <path fill="#232f3e" class="cls-2" d="M161.26,86.69c-2.07-2.65-13.65-1.25-18.85-.63-1.58.19-1.82-1.19-.4-2.19,9.24-6.49,24.38-4.61,26.14-2.44S167.68,98.8,159,106c-1.33,1.12-2.6.52-2-1,1.94-4.87,6.3-15.76,4.24-18.4Z"/>
</svg>